# xmcd
#
# Track frame offsets: 
#        150
#        18075
#        34561
#        54366
#        69832
#        84713
#        99563
#        113296
#        130906
#        152398
#        161133
#        174965
#        194690
#        212125
#        234625
#
# Disc length: 3316 seconds
#
# Revision: 0
# Processed by: cddbd v1.5.2PL0 Copyright (c) Steve Scherf et al.
# Submitted via: ExactAudioCopy v0.99pb4
#
DISCID=b50cf20f
DTITLE=Неба Любовь - Дорога
DYEAR=2010
DGENRE=Blues
TTITLE0=Фламенко
TTITLE1=Утро цветных слов
TTITLE2=Я ни разу за морем небыл
TTITLE3=Ре минор
TTITLE4=Песня о Воле
TTITLE5=Морской Бриз
TTITLE6=Она
TTITLE7=Осень
TTITLE8=Полонез
TTITLE9=Рок-н-ролл
TTITLE10=Cuba
TTITLE11=Autumn Leaves
TTITLE12=По этому морю
TTITLE13=Дорога
TTITLE14=Wonderful Tonight
EXTD=
EXTT0=
EXTT1=
EXTT2=
EXTT3=
EXTT4=
EXTT5=
EXTT6=
EXTT7=
EXTT8=
EXTT9=
EXTT10=
EXTT11=
EXTT12=
EXTT13=
EXTT14=
PLAYORDER=
